/* XPM */
static char *_43661aa53e8403c91b11b5afaaee2f1COMfhXqTbfKST57B[] = {
/* columns rows colors chars-per-pixel */
"32 32 9 1 ",
"  c None",
". c #537938",
"X c #92434A",
"o c #B6515A",
"O c #D5646E",
"+ c #629241",
"@ c #73AA4D",
"# c #CEA781",
"$ c #EEC39A",
/* pixels */
"                                ",
"                                ",
"                                ",
"                                ",
"                                ",
"                                ",
"                                ",
"                                ",
"                                ",
"                                ",
"                                ",
"        OO                      ",
"        OoX                     ",
"      XOoooX                    ",
"     XXoooXXX                   ",
"       XXXX                     ",
"         #                      ",
"        $#                      ",
"        ##                      ",
"                        @@      ",
"                        @+.     ",
"                      +@+++.    ",
"                      .+++..    ",
"                       ....     ",
"                         #      ",
"                        ##      ",
"                                ",
"                                ",
"                                ",
"                                ",
"                                ",
"                                "
};
