/* XPM */
static char *DinoSprites32[] = {
/* columns rows colors chars-per-pixel */
"32 32 8 1 ",
"  c None",
". c #213038",
"X c #437DA0",
"o c #9A2890",
"O c #4D92BC",
"+ c #D8B78F",
"@ c #FFD7A8",
"# c white",
/* pixels */
"                                ",
"                                ",
"                                ",
"                                ",
"                                ",
"        ...............         ",
"        ...............         ",
"       ..XXXX..OOOOOOOO.        ",
"     ..o.XX#.##XOOOOOOOO.       ",
"     ..o.XX#.##XO..OOOO..       ",
"     ..o.XX#.##XO..OOOO..       ",
"     ....XX#.##XOOOOOOOO.       ",
"       .o..XXXXXOOOOOOOO.       ",
"       .o..XXXXXOOOOOOOO.       ",
"       .o..XXXXXOOOOOOOO.       ",
"       ....XXXXXXOO......       ",
"         ...XXXOOOOO.           ",
"           .X++@@@@@.           ",
"           .X++@@@@@.           ",
"        ....X++@@@@@.           ",
"        .OOOX++@@@@@.           ",
"        ...XXXXO+++O.           ",
"        ...XXXXO+++O.           ",
"         ...XOOOOOOO.           ",
"           .XOO..XXO.           ",
"           .X.. .XX.            ",
"           .X.. .XX.            ",
"           ..   ...             ",
"                                ",
"                                ",
"                                ",
"                                "
};
