/* XPM */
static char *DinoSprites_mort32_R[] = {
/* columns rows colors chars-per-pixel */
"32 32 8 1 ",
"  c None",
". c #382121",
"X c #A04345",
"o c #BC4D4F",
"O c #4B9A27",
"+ c #D8B78F",
"@ c #FFD7A8",
"# c white",
/* pixels */
"                                ",
"                                ",
"                                ",
"                                ",
"                                ",
"     ................           ",
"     ................           ",
"    .ooooooooooXXXXX...         ",
"    .ooXXXXooXXXXXXX.OO.        ",
"    ...oooo.oXX#.##X.OO.        ",
"    ...oooo.oXX#.##X.OO.        ",
"    .ooooooooXX#.##X....        ",
"    .ooooooooXX#.##.O..         ",
"    .ooooooooXXXXXX.O..         ",
"    .ooooooooXXXXXX.O..         ",
"    .......oXXXXXXX....         ",
"           .oooooXXX...         ",
"           .@@@@@++X.           ",
"           .@@@@@++X.           ",
"           .@@@@@++X....        ",
"           .@@@@@++Xooo.        ",
"           .o+++oXXXX...        ",
"           .o+++oXXXX...        ",
"           .oooooooX...         ",
"           .oXX..ooX.           ",
"            .XX. ..X.           ",
"            .XX. ..X.           ",
"             ...   ..           ",
"                                ",
"                                ",
"                                ",
"                                "
};
