/* XPM */
static char *DinoSprites_doux32_4[] = {
/* columns rows colors chars-per-pixel */
"32 32 8 1 ",
"  c None",
". c #213038",
"X c #437DA0",
"o c #9A2890",
"O c #4D92BC",
"+ c #D8B78F",
"@ c #FFD7A8",
"# c white",
/* pixels */
"                                ",
"                                ",
"                                ",
"                                ",
"                                ",
"                                ",
"        ..............          ",
"        ..............          ",
"      ...XXXX.OOOOOOOO..        ",
"     .oo.X##.#XXOOOOOOOO.       ",
"     .oo.X##.#XXO.OOOO...       ",
"     .oo.X##.#XXO.OOOO...       ",
"     ....X##.#XXOOOOOOOO.       ",
"      ..o.XXXXXXOOOOOOOO.       ",
"      ..o.XXXXXXOOOOOOOO.       ",
"      ..o.XXXXXXOOOOOOOO.       ",
"      ....XXXXXXXO.......       ",
"         ...XXOOOOOO.           ",
"         ...XXOOOOOO.           ",
"          ..X+@@@@@@.           ",
"          ..X+@@@@@@.           ",
"        ..OOX+@@@@@@.           ",
"        ..OOX+@@@@@@.           ",
"        .OXXXO..++OO..          ",
"        ....XX..OOOOO.          ",
"          ........XXO.          ",
"          ........XXO.          ",
"                 ....           ",
"                                ",
"                                ",
"                                ",
"                                "
};
