/* XPM */
static char *DinoSprites_doux32_3[] = {
/* columns rows colors chars-per-pixel */
"32 32 8 1 ",
"  c None",
". c #213038",
"X c #437DA0",
"o c #9A2890",
"O c #4D92BC",
"+ c #D8B78F",
"@ c #FFD7A8",
"# c white",
/* pixels */
"                                ",
"                                ",
"                                ",
"                                ",
"                                ",
"        ..............          ",
"      ...XXXX.OOOOOOOO..        ",
"      ...XXXX.OOOOOOOO..        ",
"     .oo.X##.#XXOOOOOOOO.       ",
"     .oo.X##.#XXO.OOOO...       ",
"     ....X##.#XXOOOOOOOO.       ",
"     ....X##.#XXOOOOOOOO.       ",
"      ..o.XXXXXXOOOOOOOO.       ",
"      ..o.XXXXXXOOOOOOOO.       ",
"      ....XXXXXXXO.......       ",
"      ....XXXXXXXO.......       ",
"         ...XXOOOOOO.           ",
"          ..X+@@@@@@.           ",
"          ..X+@@@@@@.           ",
"        ....X+@@@@@@.           ",
"        .OOOX+@@@@@@.           ",
"        ..XXXXOO++OO.           ",
"        ..XXXXOO++OO.           ",
"         ...XOOOOOOOO.          ",
"         .XXXO....XXO.          ",
"         .....    ....          ",
"         .....    ....          ",
"                                ",
"                                ",
"                                ",
"                                ",
"                                "
};
